<?xml version="1.0" encoding="UTF-8"?>
<svg width="14px" height="17px" viewBox="0 0 14 17" version="1.1" xmlns="http://www.w3.org/2000/svg" xmlns:xlink="http://www.w3.org/1999/xlink">
    <!-- Generator: Sketch 56.3 (81716) - https://sketch.com -->
    <title>Shape</title>
    <desc>Created with Sketch.</desc>
    <g id="Page-1" stroke="none" stroke-width="1" fill="none" fill-rule="evenodd">
        <g id="apple-dark" fill="#222222" fill-rule="nonzero">
            <path d="M3.38978904,16.3831287 C3.07463954,16.1725848 2.79480278,15.9147352 2.5609392,15.616909 C2.30575473,15.3084222 2.06922603,14.9839449 1.85201941,14.6481407 C1.34165045,13.9019094 0.942549929,13.0857188 0.666044557,12.2255539 C0.332905555,11.2248044 0.171,10.2666966 0.171,9.32924343 C0.171,8.28318697 0.397534522,7.3703861 0.838610561,6.6041664 C1.16508678,6.00451619 1.65146973,5.50280886 2.23779437,5.15034779 C2.80413067,4.79722045 3.4637459,4.60399983 4.1300239,4.59067427 C4.3632212,4.59067427 4.61640685,4.62398817 4.88291805,4.69061597 C5.07613867,4.74391821 5.30933597,4.83053435 5.59583551,4.93713883 C5.96228842,5.07705721 6.16217182,5.16367335 6.22879962,5.18366169 C6.44200858,5.26361505 6.62190364,5.29692895 6.76182202,5.29692895 C6.8684265,5.29692895 7.02167044,5.26361505 7.19157133,5.21031281 C7.28818164,5.17699891 7.4714081,5.11703389 7.73125652,5.00376663 C7.98843983,4.91048771 8.1923209,4.83053435 8.35422645,4.77056933 C8.60074931,4.69727875 8.83927684,4.63065095 9.05381836,4.59733705 C9.31366678,4.55736037 9.57151637,4.54403481 9.81870551,4.56402315 C10.2917629,4.59733705 10.7248436,4.69727875 11.1112848,4.84385991 C11.7908884,5.11703389 12.3392352,5.54345181 12.7483299,6.1497648 C12.5750976,6.25636928 12.4151909,6.38029699 12.2652783,6.5162177 C11.9408009,6.80271724 11.6656281,7.14251902 11.4457564,7.5189661 C11.1592569,8.03200016 11.0126757,8.61166202 11.0166734,9.19798667 C11.0266675,9.91956575 11.209894,10.5538624 11.5763469,11.1035418 C11.8341965,11.5033086 12.1786622,11.8457755 12.5984173,12.1269448 C12.8049635,12.2668632 12.9861911,12.3634735 13.1580909,12.4267699 C13.0781375,12.6766241 12.9901888,12.9198156 12.8882483,13.1596757 C12.6570498,13.697362 12.381877,14.2123949 12.0554008,14.6987779 C11.7675687,15.118533 11.5410341,15.4316837 11.3691344,15.6382299 C11.1012907,15.9580433 10.8427748,16.1979034 10.5829264,16.3691368 C10.2964268,16.5590261 9.95995644,16.659634 9.61549071,16.659634 C9.38229341,16.6696282 9.14909611,16.6396457 8.92655926,16.5750167 C8.73333864,16.5117203 8.54278313,16.4404286 8.35622529,16.3598089 C8.16100583,16.2705277 7.95912359,16.194572 7.75324369,16.1332744 C7.50005805,16.0666466 7.24020963,16.0346653 6.97769609,16.0353316 C6.71118489,16.0353316 6.45133647,16.0686455 6.20481361,16.1319419 C5.99826743,16.1905743 5.79838403,16.2625323 5.60049946,16.3484822 C5.3206627,16.4650809 5.13743625,16.5417028 5.03083176,16.5750167 C4.81495769,16.6389794 4.59375339,16.6776235 4.37121654,16.6916154 C4.02475198,16.6916154 3.70227342,16.5916737 3.38112743,16.3917903 L3.38978904,16.3831287 Z M7.95645848,4.08363671 C7.50338944,4.31017123 7.07297385,4.40611526 6.64189198,4.37413392 C6.57526418,3.94371832 6.64189198,3.50130973 6.82178704,3.01692562 C6.98169376,2.60383326 7.19490272,2.23071758 7.48806505,1.89757857 C7.79455293,1.55111401 8.16100583,1.26461447 8.57409819,1.05806829 C9.01384168,0.831533766 9.43359682,0.711603725 9.83336362,0.691615385 C9.88666586,1.14468443 9.83336362,1.59109069 9.66679412,2.07081085 C9.51488274,2.49722878 9.28834821,2.8903328 9.00051612,3.24346014 C8.71068518,3.5899247 8.35089506,3.87642425 7.9437992,4.08297043 L7.95645848,4.08363671 Z" id="Shape"></path>
        </g>
    </g>
</svg>