<?xml version="1.0" encoding="UTF-8"?>
<svg width="126px" height="128px" viewBox="0 0 126 80" version="1.1" xmlns="http://www.w3.org/2000/svg" xmlns:xlink="http://www.w3.org/1999/xlink">
    <defs>
        <path d="M15.7279825,47.7701741 L15.7279825,80.7650157 C15.7279825,83.3019032 16.130166,85.3746948 16.934545,86.9834527 C18.4195523,89.9534674 21.1884307,91.4384524 25.2412631,91.4384524 C31.0575418,91.4384524 35.017502,88.8397286 37.1212623,83.642203 C38.2659555,80.8578142 38.8382935,77.0370714 38.8382935,72.17986 L38.8382935,47.7701741 L47.1914179,47.7701741 L47.1914179,97.4712645 L39.302356,97.4712645 L39.3951684,90.1390775 C38.3123506,92.0262743 36.9665829,93.6195395 35.357825,94.918921 C32.1712467,97.5176838 28.3040982,98.8170457 23.7562632,98.8170457 C16.6715408,98.8170457 11.8453394,96.4503508 9.27751422,91.7168899 C7.88531986,89.1800024 7.18923311,85.7923803 7.18923311,81.5539219 L7.18923311,47.7701741 L15.7279825,47.7701741 Z" id="path-1"></path>
        <path d="M31.0304258,91.8561087 C34.92857,91.8561087 38.1692405,90.224172 40.7525345,86.9602496 C43.3358285,83.6963273 44.6274561,78.8159858 44.6274561,72.3190787 C44.6274561,68.3590592 44.0551181,64.9559685 42.910425,62.1097044 C40.7447893,56.6337399 36.7848292,53.8957987 31.0304258,53.8957987 C25.2450847,53.8957987 21.2851246,56.7884258 19.1504266,62.5737669 C18.0057334,65.6675321 17.4333954,69.5965551 17.4333954,74.3609536 C17.4333954,78.1972225 18.0057334,81.4610959 19.1504266,84.1526717 C21.3160623,89.288322 25.2760224,91.8561087 31.0304258,91.8561087 Z M9.40511473,48.0022054 L17.5262079,48.0022054 L17.5262079,54.5918924 C19.1968412,52.3334438 21.0221353,50.5854926 23.0021451,49.3479865 C25.8174715,47.4917274 29.1277506,46.5636117 32.9330819,46.5636117 C38.5637347,46.5636117 43.3435303,48.7214806 47.2726122,53.0372832 C51.2016941,57.3530857 53.1662055,63.5173205 53.1662055,71.5301725 C53.1662055,82.3583509 50.3354528,90.0926481 44.6738624,94.733296 C41.0850947,97.672373 36.9085742,99.1418894 32.1441757,99.1418894 C28.4007197,99.1418894 25.2605951,98.3220539 22.7237076,96.6823583 C21.2387003,95.7542288 19.5835607,94.1609635 17.7582392,91.9025149 L17.7582392,117.286732 L9.40511473,117.286732 L9.40511473,48.0022054 Z" id="path-2"></path>
    </defs>
    <g id="Page-1" stroke="none" stroke-width="1" fill="none" fill-rule="evenodd">
        <g id="logo-copy" transform="translate(-2.000000, -46.000000)" fill-rule="nonzero">
            <path d="M2.20205686,105.614526 C2.20205686,102.387845 4.81074726,99.772104 8.05866603,99.772104 L121.244317,99.772104 C124.478834,99.772104 127.100926,102.334967 127.100926,105.614526 L127.100926,119.676809 C127.100926,122.903489 124.492236,125.51923 121.244317,125.51923 L8.05866603,125.51923 C4.82415011,125.51923 2.20205686,122.956368 2.20205686,119.676809 L2.20205686,105.614526 Z" id="Rectangle-5" fill="#41DB7F"></path>
            <g id="up" transform="translate(6.436784, 0.000000)">
                <g id="u">
                    <g>
                        <use fill="#000000" xlink:href="#path-1"></use>
                        <use fill="#222222" xlink:href="#path-1"></use>
                    </g>
                </g>
                <g id="p" transform="translate(58.666667, 0.000000)">
                    <g>
                        <use fill="#000000" xlink:href="#path-2"></use>
                        <use fill="#222222" xlink:href="#path-2"></use>
                    </g>
                </g>
            </g>
        </g>
    </g>
</svg>