<?xml version="1.0" encoding="UTF-8"?>
<svg width="36px" height="36px" viewBox="0 0 36 36" version="1.1" xmlns="http://www.w3.org/2000/svg" xmlns:xlink="http://www.w3.org/1999/xlink">
    <!-- Generator: Sketch 56.3 (81716) - https://sketch.com -->
    <title>github</title>
    <desc>Created with Sketch.</desc>
    <g id="Page-1" stroke="none" stroke-width="1" fill="none" fill-rule="evenodd">
        <g id="github" fill="#161514" fill-rule="nonzero">
            <path d="M18.1178182,0.496363636 C8.30618182,0.496363636 0.349090909,8.45236364 0.349090909,18.2672727 C0.349090909,26.1185455 5.44036364,32.7785455 12.5018182,35.1283636 C13.3909091,35.292 13.7149091,34.7432727 13.7149091,34.272 C13.7149091,33.8509091 13.6996364,32.7327273 13.6909091,31.2501818 C8.748,32.3236364 7.70509091,28.8676364 7.70509091,28.8676364 C6.89672727,26.8145455 5.73163636,26.268 5.73163636,26.268 C4.11818182,25.1661818 5.85381818,25.188 5.85381818,25.188 C7.63745455,25.3134545 8.57563636,27.0196364 8.57563636,27.0196364 C10.1607273,29.7349091 12.7352727,28.9505455 13.7476364,28.4956364 C13.9090909,27.348 14.3683636,26.5647273 14.8756364,26.1207273 C10.9298182,25.6723636 6.78109091,24.1472727 6.78109091,17.3378182 C6.78109091,15.3981818 7.47381818,13.8109091 8.61054545,12.5694545 C8.42727273,12.12 7.81745455,10.3123636 8.78509091,7.86654545 C8.78509091,7.86654545 10.2763636,7.38872727 13.6712727,9.68836364 C15.0883636,9.29345455 16.6090909,9.09709091 18.12,9.08945455 C19.6298182,9.09709091 21.1494545,9.29345455 22.5687273,9.68836364 C25.9614545,7.38872727 27.4505455,7.86654545 27.4505455,7.86654545 C28.4203636,10.3123636 27.8105455,12.12 27.6283636,12.5694545 C28.7672727,13.8109091 29.4545455,15.3981818 29.4545455,17.3378182 C29.4545455,24.1647273 25.2992727,25.6669091 21.3414545,26.1065455 C21.9785455,26.6552727 22.5469091,27.7396364 22.5469091,29.3978182 C22.5469091,31.7727273 22.5250909,33.6894545 22.5250909,34.272 C22.5250909,34.7476364 22.8458182,35.3007273 23.7469091,35.1272727 C30.8029091,32.772 35.8898182,26.1163636 35.8898182,18.2672727 C35.8898182,8.45236364 27.9327273,0.496363636 18.1178182,0.496363636" id="Fill-4"></path>
        </g>
    </g>
</svg>