<?xml version="1.0" encoding="UTF-8"?>
<svg width="14px" height="16px" viewBox="0 0 14 16" version="1.1" xmlns="http://www.w3.org/2000/svg" xmlns:xlink="http://www.w3.org/1999/xlink">
    <!-- Generator: Sketch 56.3 (81716) - https://sketch.com -->
    <title>Shape</title>
    <desc>Created with Sketch.</desc>
    <g id="Page-1" stroke="none" stroke-width="1" fill="none" fill-rule="evenodd">
        <g id="linux-dark" fill="#222222" fill-rule="nonzero">
            <path d="M7.03921487,0 C6.93588895,0 6.82922993,0.00533295089 6.71990444,0.0139989961 C3.90210651,0.235983077 4.64938625,3.21843586 4.60672265,4.21236458 C4.55539299,4.940979 4.40673699,5.51493784 3.90610622,6.22622016 C3.31614853,6.92683658 2.48820791,8.05942203 2.0955694,9.24000403 C1.91024935,9.79463092 1.82225567,10.3625902 1.90424978,10.8992184 C1.87825165,10.9218834 1.85358675,10.9445485 1.83025509,10.9892119 C1.65693419,11.1678658 1.53094322,11.3898499 1.38895341,11.5485051 C1.25629625,11.6811623 1.06564326,11.7264924 0.857658173,11.8151527 C0.64900647,11.9058129 0.419022963,11.9944732 0.281699477,12.2691201 C0.22170378,12.3944445 0.191039312,12.5311013 0.193705788,12.6697581 C0.193705788,12.8024152 0.211704497,12.9370722 0.230369825,13.0270658 C0.269033719,13.2930467 0.307697613,13.5130309 0.256367961,13.6736861 C0.0910464832,14.1269869 0.0703812985,14.4376313 0.18637298,14.6636151 C0.302364662,14.8862658 0.543014071,14.9762593 0.812328091,15.064253 C1.35295599,15.1975768 2.08557012,15.1542466 2.66219543,15.4635577 C3.2794845,15.7748687 3.90610622,15.910859 4.40607037,15.7768686 C4.75671189,15.7002074 5.05269067,15.468224 5.21134595,15.1469138 C5.60265123,15.1449139 6.03128715,14.9675933 6.71790458,14.9242631 C7.18387116,14.8855992 7.76716267,15.1022503 8.436448,15.0569202 C8.45311347,15.1469138 8.47844499,15.1895774 8.51244255,15.2795709 L8.51444241,15.2815708 C8.77509038,15.8002002 9.2563892,16.0361833 9.77035234,15.9955196 C10.2843155,15.9555224 10.8316096,15.6382119 11.2749111,15.1249153 C11.6955476,14.6149519 12.3968307,14.4023005 12.8601308,14.1229872 C13.0921141,13.99033 13.279434,13.8103429 13.2927664,13.5543613 C13.3080986,13.2877138 13.1601093,13.0130668 12.8168005,12.6364271 L12.8168005,12.5717651 L12.8148007,12.5697652 C12.7014755,12.4364415 12.648146,12.2131242 12.5894835,11.9524762 C12.5328209,11.685162 12.4681589,11.4285138 12.261507,11.2551928 L12.2595072,11.2551928 C12.2201767,11.2191954 12.1775131,11.2105294 12.1341828,11.1651993 C12.0968522,11.1398678 12.0535219,11.1238689 12.0075252,11.1225357 C12.294838,10.2705968 12.1835126,9.4226576 11.8922002,8.66004562 C11.5368923,7.72011303 10.9156035,6.90150507 10.4423042,6.33821213 C9.91167554,5.66826017 9.39171283,5.03363902 9.40171211,4.09237319 C9.41971082,2.6578094 9.55970078,0.00399971317 7.03921487,0 Z M7.39185625,2.26983722 L7.40052229,2.26983722 C7.54251211,2.26983722 7.66450336,2.31116759 7.78982771,2.40182776 C7.91715191,2.4918213 8.00981193,2.62314522 8.08247339,2.75713561 C8.15246837,2.92978989 8.18779917,3.06311367 8.19313212,3.23976766 C8.19313212,3.22643529 8.19713183,3.21310291 8.19713183,3.20043715 L8.19713183,3.26976551 C8.19579859,3.26509918 8.19446536,3.25976623 8.19446536,3.25576652 L8.19179888,3.23976766 C8.19046564,3.40175605 8.15646808,3.56174457 8.09180605,3.71040058 C8.06047497,3.79372794 8.01247841,3.87038911 7.94981623,3.9337179 C7.93048429,3.923052 7.91181896,3.91371933 7.89115377,3.90571991 C7.82115879,3.87572206 7.75849662,3.8630563 7.7011674,3.8170596 C7.65383746,3.79839427 7.60450766,3.78306204 7.55517787,3.77306275 C7.58784219,3.73373224 7.6518376,3.68440244 7.6765025,3.64107222 C7.7118333,3.555745 7.73116525,3.46508484 7.73516496,3.37309144 L7.73516496,3.36042568 C7.7364982,3.27043213 7.72316582,3.17977197 7.69450121,3.09377813 C7.66450336,3.00378459 7.62717271,2.95978774 7.57250996,2.87112743 C7.51651398,2.82713059 7.46118461,2.78313374 7.39452272,2.78313374 L7.38385682,2.78313374 C7.32186127,2.78313374 7.2665319,2.80313231 7.20920268,2.87112743 C7.14587389,2.93378961 7.09854395,3.00911754 7.07254581,3.09377813 C7.03721501,3.17843873 7.01654983,3.26976551 7.01255012,3.36042568 L7.01255012,3.37309144 C7.01388335,3.43242051 7.01788307,3.49241621 7.02588249,3.55107867 C6.89722505,3.50641521 6.73390343,3.46108513 6.62124484,3.41642166 C6.61457866,3.37309144 6.61057894,3.32842797 6.60924571,3.28376451 L6.60924571,3.27043213 C6.60391275,3.09444475 6.63791032,2.91979061 6.70923853,2.75780223 C6.76390128,2.6118127 6.86389411,2.48715497 6.99588464,2.40249437 C7.10987647,2.31650054 7.24853319,2.26983722 7.39185625,2.26983722 L7.39185625,2.26983722 Z M5.41733118,2.30916773 L5.44132946,2.30916773 C5.53598934,2.30916773 5.62131655,2.34116544 5.70731039,2.39916128 C5.80463674,2.48515511 5.88329777,2.59114751 5.93662727,2.70913905 C5.99662297,2.8417962 6.03062053,2.97645321 6.03861996,3.15377383 L6.03861996,3.15644031 C6.04328629,3.24576723 6.04261967,3.2904307 6.03728672,3.33376092 L6.03728672,3.38709043 C6.01728816,3.39175676 5.99995607,3.39908957 5.98195736,3.40308928 C5.88063129,3.43975332 5.79930379,3.49308283 5.71997614,3.53641306 C5.72797557,3.47708398 5.72864219,3.41708828 5.721976,3.35842582 L5.721976,3.34842654 C5.71397658,3.25976623 5.69597787,3.21576939 5.66731325,3.12644246 C5.64664807,3.05844733 5.6086508,2.99778502 5.55665452,2.94845522 C5.5239902,2.91845737 5.47999335,2.90312514 5.43466327,2.90579161 L5.42066428,2.90579161 C5.37333434,2.90979133 5.33400382,2.93312299 5.29667317,2.9937853 C5.25400956,3.04511496 5.22667819,3.10777713 5.2166789,3.1737724 C5.1986802,3.24576723 5.19334724,3.31976193 5.20134667,3.39442324 L5.20134667,3.4037559 C5.2093461,3.49374945 5.22601157,3.53774629 5.2553428,3.6264066 C5.28534065,3.71573353 5.32000483,3.75973038 5.36533491,3.80506046 C5.37266772,3.81106003 5.37933391,3.8170596 5.38799995,3.82105931 C5.34133663,3.85905659 5.31000555,3.86772263 5.27067503,3.91171948 C5.24601013,3.9303848 5.21734552,3.95171661 5.18334796,3.95704956 C5.1140196,3.8737222 5.05269067,3.78372865 5.00002778,3.68906878 C4.93603236,3.54907882 4.90270142,3.39708972 4.89670185,3.244434 C4.88536933,3.09377813 4.90403466,2.94312227 4.95003136,2.7991326 C4.9866954,2.66780868 5.05135743,2.54648405 5.1386845,2.44249151 C5.22401171,2.3538312 5.3120054,2.30916773 5.41733118,2.30916773 L5.41733118,2.30916773 Z M6.33126564,3.44641951 C6.55191648,3.44641951 6.81923065,3.48974974 7.14120756,3.71240044 C7.33652688,3.84572421 7.48984922,3.89172091 7.84315722,4.02437806 L7.84515707,4.02437806 C8.01514488,4.11503823 8.11513771,4.20169868 8.16380089,4.29035899 L8.16380089,4.20303192 C8.21246407,4.30102489 8.21579716,4.41501672 8.17446679,4.51634278 C8.09247267,4.72366125 7.83049146,4.94564533 7.46518432,5.07830248 L7.46518432,5.07963572 C7.28653047,5.16962927 7.13120827,5.3016198 6.94855471,5.38961349 C6.7645679,5.47960704 6.55658282,5.5842662 6.27393642,5.56760073 C6.17261035,5.57293368 6.07061767,5.55760144 5.97529117,5.52293726 C5.90196309,5.48294013 5.82996826,5.43894329 5.7606399,5.39094673 C5.63064922,5.30095318 5.51865725,5.16962927 5.35266915,5.08096896 L5.35266915,5.07763586 L5.34933606,5.07763586 C5.08268851,4.91364762 4.93869884,4.73632701 4.89203552,4.60366985 C4.84603882,4.425016 4.88870243,4.29102561 5.02069296,4.20369854 C5.17001558,4.11370499 5.27400813,4.02304483 5.34266987,3.9797146 C5.41199823,3.9303848 5.43799637,3.91171948 5.45999479,3.89238753 L5.46132803,3.89238753 L5.46132803,3.89038767 C5.57398661,3.75573066 5.75197385,3.57774343 6.02062125,3.48974974 C6.11328127,3.46575146 6.2166072,3.44641951 6.33126564,3.44641951 L6.33126564,3.44641951 Z M8.19713183,4.87498373 C8.436448,5.81958266 8.99507461,7.19148427 9.35438217,7.85676989 C9.54503517,8.21274437 9.9243413,8.96269059 10.0889962,9.87262533 C10.1929887,9.86929224 10.3083138,9.88462447 10.4309716,9.91528894 C10.8616074,8.80136882 10.0669977,7.60412135 9.7050237,7.27147853 C9.55770093,7.13748814 9.55036812,7.04816122 9.62302958,7.04816122 C10.0156681,7.40413569 10.5329643,8.09608607 10.7202842,8.88602942 C10.8062781,9.24267051 10.8262766,9.62197664 10.7342832,9.99928291 C10.7789467,10.0179482 10.8242768,10.0399467 10.8709401,10.0439464 C11.5588907,10.3999208 11.8128725,10.6692349 11.6908813,11.0685396 L11.6908813,11.039875 C11.6502175,11.0378751 11.610887,11.039875 11.5702233,11.039875 L11.560224,11.039875 C11.6608834,10.7285639 11.4388994,10.4899144 10.8502749,10.2239335 C10.2403186,9.95728593 9.75302025,9.99994953 9.6696929,10.5339112 C9.66502656,10.5625759 9.66169347,10.5779081 9.65836038,10.6239048 C9.61303029,10.639237 9.56570035,10.6592356 9.51903703,10.6665684 C9.23239092,10.8452222 9.07773535,11.1125364 8.99040828,11.457845 C8.90374782,11.8131528 8.87708307,12.2284564 8.85375141,12.7037556 L8.85375141,12.7057555 C8.83975241,12.9284062 8.73975958,13.2643821 8.64109999,13.6063576 C7.6411717,14.320973 6.25460447,14.6316174 5.07535571,13.8290083 C5.00136101,13.7003508 4.91136747,13.5796928 4.80737492,13.4737004 C4.75804513,13.3903731 4.69538296,13.3157117 4.62405474,13.2510497 C4.74537937,13.2510497 4.84937191,13.2317178 4.93403251,13.2063863 C5.03069224,13.1617228 5.10535356,13.0810619 5.14335083,12.9837356 C5.21534567,12.8057483 5.14335083,12.5191022 4.91336732,12.2084578 C4.68338382,11.8971468 4.29274516,11.5451721 3.7214528,11.1945305 C3.30148292,10.9285496 3.0641666,10.6145721 2.95484111,10.2639306 C2.844849,9.90795613 2.85951461,9.54064914 2.94484183,9.16734258 C3.10816345,8.45406039 3.52680009,7.76077678 3.79411426,7.32547466 C3.86544247,7.28214444 3.81877915,7.41546821 3.52213376,7.97476143 C3.25815269,8.4753922 2.76152164,9.63930873 3.44080626,10.5439105 C3.46613778,9.88462447 3.61279393,9.23400446 3.87210866,8.62671468 C4.2480817,7.77477577 5.03402534,6.29088219 5.09602089,5.11496652 C5.1280186,5.1389648 5.24067718,5.20496007 5.28867374,5.24962353 C5.43399665,5.33828384 5.54198891,5.47160761 5.68197887,5.5596013 C5.82263545,5.69359169 5.99995607,5.78291862 6.26593699,5.78291862 C6.29193513,5.78491848 6.31593341,5.78691833 6.33993169,5.78691833 C6.61391204,5.78691833 6.82589684,5.6975914 7.00388407,5.60826448 C7.19720354,5.51893755 7.3511925,5.38561378 7.49718203,5.34161693 L7.50051512,5.34161693 C7.81182613,5.25162339 8.05780849,5.07363615 8.19713183,4.87498373 L8.19713183,4.87498373 Z M9.65436066,10.8465555 C9.67902556,11.2471934 9.88301093,11.676496 10.2423185,11.7644897 C10.6342904,11.8538166 11.1982499,11.5425056 11.4362329,11.2545262 L11.5768895,11.2485267 C11.7868744,11.2431937 11.9615285,11.2551928 12.1415156,11.4265139 L12.1435155,11.4285138 C12.2821722,11.5611709 12.3468342,11.7824884 12.4041635,12.0124719 C12.4608261,12.279786 12.5068228,12.5324346 12.6768106,12.7230876 C13.0007873,13.0743957 13.1067797,13.3270443 13.1007802,13.4830331 L13.10278,13.4790334 L13.10278,13.4910325 L13.1007802,13.4830331 C13.0907809,13.6576872 12.9774557,13.7470141 12.768804,13.8796713 C12.3488341,14.1469855 11.6048874,14.3543039 11.1309214,14.9262629 C10.718951,15.417561 10.216987,15.6855418 9.77368544,15.720206 C9.33105051,15.7555368 8.94907791,15.5868822 8.72442735,15.1215822 L8.72109426,15.1195824 C8.5811043,14.8522682 8.64109999,14.4362981 8.75842491,13.9929965 C8.87574983,13.5476951 9.04373779,13.0963941 9.06706945,12.7277539 C9.09173434,12.251788 9.11773248,11.8378177 9.19706012,11.5185073 C9.27705439,11.2085295 9.40237873,10.9872121 9.62436281,10.8625543 L9.65436066,10.8478887 L9.65436066,10.8465555 Z M2.44487768,10.8792198 L2.45154387,10.8792198 C2.48687467,10.8792198 2.52153885,10.8825529 2.55620303,10.8885525 C2.80685172,10.9252165 3.02683595,11.1105366 3.23815413,11.3898499 L3.84477729,12.4991036 L3.84677715,12.5011035 C4.00876553,12.8564114 4.34940777,13.210386 4.63938697,13.5930252 C4.92869956,13.9916633 5.15268349,14.3469711 5.12535212,14.6396168 L5.12535212,14.6436165 C5.08735485,15.139581 4.80604169,15.408895 4.3754059,15.5062213 C3.94543674,15.5962149 3.36214523,15.5075546 2.77885373,15.1969102 C2.13356667,14.8396025 1.36695498,14.8842659 0.874323645,14.7956056 C0.628341285,14.7516088 0.467019521,14.6616152 0.392358208,14.5282915 C0.318363515,14.3956343 0.317030277,14.1276535 0.474352328,13.7083503 L0.474352328,13.7063504 L0.475685566,13.7043505 C0.553679973,13.4816998 0.495684132,13.2023865 0.457686857,12.958404 C0.421022819,12.6910899 0.402357491,12.4857713 0.486351468,12.3317823 C0.593010486,12.1091316 0.750332537,12.0658014 0.945651863,11.9764745 C1.14230443,11.8864809 1.37295455,11.8418174 1.55627474,11.6638302 L1.55760798,11.6638302 L1.55760798,11.6618304 C1.72826241,11.4831765 1.85425337,11.2611924 2.00290938,11.1032037 C2.12956696,10.9692134 2.25622454,10.8792198 2.44487768,10.8792198 L2.44487768,10.8792198 Z M7.21720211,4.83032027 C6.9272229,4.96431066 6.58724728,5.18696136 6.22527324,5.18696136 C5.86396582,5.18696136 5.57865295,5.00897412 5.37266772,4.87631697 C5.26934179,4.78699004 5.18601444,4.69766311 5.12335226,4.65299965 C5.01402677,4.56367272 5.02735915,4.43034895 5.07402247,4.43034895 C5.14668392,4.44101485 5.1600163,4.5203425 5.20667962,4.56433934 C5.27067503,4.60833619 5.35000268,4.69699649 5.44732903,4.78632342 C5.64131512,4.91964719 5.90062986,5.09763443 6.22460662,5.09763443 C6.54791677,5.09763443 6.92655628,4.91964719 7.15653979,4.78699004 C7.28653047,4.69699649 7.45318518,4.56433934 7.58850881,4.47567903 C7.69250135,4.38435225 7.68783502,4.29702518 7.77449547,4.29702518 C7.86048931,4.30769108 7.79716052,4.3863521 7.6765025,4.51900926 C7.55584449,4.6090028 7.36919121,4.74232658 7.21653549,4.83098689 L7.21653549,4.83032027 L7.21720211,4.83032027 Z M6.4959205,3.77439599 L6.4959205,3.75973038 C6.49192079,3.74706462 6.50458654,3.73173238 6.51525245,3.72639943 C6.56458224,3.69773482 6.63524384,3.70840072 6.68857335,3.72906591 C6.73057034,3.72906591 6.79523237,3.77372937 6.78856618,3.81905945 C6.78456647,3.85172378 6.73190358,3.8630563 6.69857263,3.8630563 C6.6619086,3.8630563 6.6372437,3.83439169 6.60457937,3.81772622 C6.56991519,3.80572708 6.50725302,3.81239327 6.4959205,3.77439599 L6.4959205,3.77439599 Z M6.12861351,3.77439599 C6.11528113,3.81305988 6.05328558,3.80706031 6.01795478,3.81839284 C5.98662369,3.83505831 5.96062555,3.86372292 5.92529475,3.86372292 C5.89129719,3.86372292 5.83796768,3.85105716 5.83396797,3.81839284 C5.8279684,3.77439599 5.89263043,3.72973253 5.9339608,3.72973253 C5.98795693,3.70906734 6.05661867,3.69840144 6.10661508,3.72639943 C6.11928084,3.732399 6.13061336,3.746398 6.12661365,3.75973038 L6.12661365,3.77372937 L6.12861351,3.77372937 L6.12861351,3.77439599 Z" id="Shape"></path>
        </g>
    </g>
</svg>