<?xml version="1.0" encoding="UTF-8"?>
<svg width="74px" height="19px" viewBox="0 0 74 19" version="1.1" xmlns="http://www.w3.org/2000/svg" xmlns:xlink="http://www.w3.org/1999/xlink">
    <!-- Generator: Sketch 56.3 (81716) - https://sketch.com -->
    <title>logo</title>
    <desc>Created with Sketch.</desc>
    <g id="invoice" stroke="none" stroke-width="1" fill="none" fill-rule="evenodd">
        <g id="upcount_invoices" transform="translate(-20.000000, -24.000000)">
            <g id="left_sidebar">
                <g id="logo" transform="translate(20.000000, 15.000000)">
                    <path d="M0.377321981,19.3778395 C0.377321981,18.9282581 0.748783268,18.5638004 1.19014867,18.5638004 L20.9658903,18.5638004 C21.4148021,18.5638004 21.778717,18.9327921 21.778717,19.3778395 L21.778717,22.0776303 C21.778717,22.5272116 21.4072557,22.8916693 20.9658903,22.8916693 L1.19014867,22.8916693 C0.741236886,22.8916693 0.377321981,22.5226776 0.377321981,22.0776303 L0.377321981,19.3778395 Z" id="Rectangle-5" fill="#46DC8A"></path>
                    <path d="M5.89863705,19.8550697 C5.11552774,19.8550697 4.45759741,19.7058318 3.92482632,19.4073517 C3.39205523,19.1088715 2.99248291,18.6723909 2.72609736,18.0978967 C2.45971182,17.5234026 2.32652104,16.828564 2.32652104,16.01336 L2.32652104,9.29277519 L4.00185308,9.29277519 L4.00185308,15.6089695 C4.00185308,16.5397142 4.1831851,17.2329481 4.54585457,17.6886921 C4.90852405,18.144436 5.50387077,18.3723046 6.33191258,18.3723046 C6.78765652,18.3723046 7.19043826,18.3049068 7.54026988,18.1701093 C7.8901015,18.0353118 8.18376309,17.8411421 8.42126346,17.5875944 C8.65876382,17.3340468 8.83688642,17.0259428 8.95563661,16.6632733 C9.07438679,16.3006038 9.13376099,15.8914033 9.13376099,15.4356593 L9.13376099,9.29277519 L10.809093,9.29277519 L10.809093,19.6721311 L9.13376099,19.6721311 L9.13376099,18.1219676 L8.97970747,18.1219676 C8.81281532,18.4878465 8.58494677,18.8007646 8.29609497,19.0607312 C8.00724317,19.3206979 7.66223093,19.518077 7.26104788,19.6528745 C6.85986483,19.787672 6.40573243,19.8550697 5.89863705,19.8550697 Z M13.1230512,23.1383354 L13.1230512,9.29277519 L14.7983833,9.29277519 L14.7983833,10.9488505 L14.9524368,10.9488505 C15.1642614,10.5637148 15.430643,10.2347496 15.7515894,9.96194517 C16.0725359,9.68914069 16.4384093,9.47892393 16.8492208,9.33128857 C17.2600322,9.18365321 17.7061411,9.10983663 18.1875607,9.10983663 C19.066954,9.10983663 19.8323997,9.33289106 20.483921,9.77900661 C21.1354423,10.2251222 21.6409254,10.8493536 22.0003854,11.6517197 C22.3598454,12.4540858 22.5395727,13.3944448 22.5395727,14.4728248 L22.5395727,14.4920815 C22.5395727,15.5768805 22.3598454,16.5204489 22.0003854,17.322815 C21.6409254,18.1251811 21.1354423,18.7478078 20.483921,19.1907139 C19.8323997,19.63362 19.066954,19.8550697 18.1875607,19.8550697 C17.71256,19.8550697 17.2648464,19.7796484 16.8444066,19.6288036 C16.4239668,19.4779588 16.0516745,19.267742 15.7275186,18.998147 C15.4033627,18.728552 15.1450047,18.4076104 14.9524368,18.0353125 L14.7983833,18.0353125 L14.7983833,23.1383354 L13.1230512,23.1383354 Z M17.8024269,18.3723046 C18.4379009,18.3723046 18.9802922,18.2166479 19.4296172,17.9053298 C19.8789423,17.5940118 20.2239545,17.1479029 20.4646643,16.5669899 C20.7053742,15.9860768 20.8257273,15.2944476 20.8257273,14.4920815 L20.8257273,14.4728248 C20.8257273,13.6640398 20.7053742,12.9708059 20.4646643,12.3931023 C20.2239545,11.8153987 19.8789423,11.3708946 19.4296172,11.0595765 C18.9802922,10.7482585 18.4379009,10.5926018 17.8024269,10.5926018 C17.1733719,10.5926018 16.6309806,10.7498632 16.1752366,11.0643907 C15.7194927,11.3789182 15.3696663,11.825027 15.125747,12.4027306 C14.8818277,12.9804342 14.7598699,13.6704587 14.7598699,14.4728248 L14.7598699,14.4920815 C14.7598699,15.2880287 14.8818277,15.9764485 15.125747,16.5573615 C15.3696663,17.1382746 15.7194927,17.5859881 16.1752366,17.9005157 C16.6309806,18.2150432 17.1733719,18.3723046 17.8024269,18.3723046 Z" id="up" fill="#FFFFFF" fill-rule="nonzero"></path>
                    <path d="M30.2247667,27.4288402 C29.2555084,27.4288402 28.4146413,27.2073905 27.7021403,26.7644844 C26.9896392,26.3215783 26.4376196,25.6957421 26.0460649,24.8869571 C25.6545102,24.0781721 25.4587359,23.1249754 25.4587359,22.0273386 L25.4587359,22.0080819 C25.4587359,20.9297019 25.6529055,19.9925524 26.0412507,19.1966052 C26.4295959,18.400658 26.9800108,17.7828454 27.6925119,17.3431488 C28.405013,16.9034521 29.2458801,16.6836071 30.2151383,16.6836071 C31.056018,16.6836071 31.7813461,16.8312403 32.3911443,17.126511 C33.0009425,17.4217817 33.4887738,17.8181446 33.8546527,18.3156116 C34.2205317,18.8130786 34.4548191,19.3699123 34.5575219,19.9861295 L34.5671503,20.0438995 L32.9014466,20.0438995 L32.8918182,20.0150145 C32.7634397,19.5015002 32.4713828,19.0650196 32.0156388,18.7055596 C31.5598949,18.3460996 30.959734,18.1663723 30.2151383,18.1663723 C29.5925022,18.1663723 29.0533203,18.3236337 28.5975763,18.6381612 C28.1418324,18.9526887 27.7904013,19.3971928 27.5432726,19.971687 C27.2961438,20.5461811 27.1725813,21.2249726 27.1725813,22.0080819 L27.1725813,22.0273386 C27.1725813,22.8232858 27.2977485,23.514915 27.5480867,24.102247 C27.798425,24.689579 28.1514607,25.1437114 28.6072047,25.4646578 C29.0629486,25.7856042 29.5989211,25.9460751 30.2151383,25.9460751 C30.9148015,25.9460751 31.4860776,25.7952325 31.9289837,25.4935428 C32.3718898,25.1918532 32.689622,24.7521632 32.8821899,24.1744596 L32.9014466,24.1166895 L34.5575219,24.1070612 L34.5382652,24.2129729 C34.3970488,24.835609 34.1467143,25.3892333 33.7872543,25.8738625 C33.4277943,26.3584916 32.9528007,26.7388074 32.3622593,27.0148214 C31.7717178,27.2908353 31.0592274,27.4288402 30.2247667,27.4288402 Z M40.4724812,27.4288402 C39.4903851,27.4288402 38.6414945,27.2122046 37.9257839,26.7789269 C37.2100734,26.3456492 36.6580538,25.7278366 36.2697086,24.9254705 C35.8813634,24.1231044 35.6871937,23.1699078 35.6871937,22.065852 L35.6871937,22.0465953 C35.6871937,20.9361206 35.8813634,19.9797146 36.2697086,19.1773485 C36.6580538,18.3749824 37.2100734,17.7587745 37.9257839,17.3287062 C38.6414945,16.898638 39.4903851,16.6836071 40.4724812,16.6836071 C41.4609962,16.6836071 42.3114915,16.898638 43.0239926,17.3287062 C43.7364937,17.7587745 44.2869086,18.3749824 44.6752538,19.1773485 C45.063599,19.9797146 45.2577687,20.9361206 45.2577687,22.0465953 L45.2577687,22.065852 C45.2577687,23.1699078 45.063599,24.1231044 44.6752538,24.9254705 C44.2869086,25.7278366 43.7364937,26.3456492 43.0239926,26.7789269 C42.3114915,27.2122046 41.4609962,27.4288402 40.4724812,27.4288402 Z M40.4724812,25.9460751 C41.1272119,25.9460751 41.6824409,25.7920231 42.1381849,25.4839145 C42.5939288,25.1758059 42.9421505,24.7329065 43.1828603,24.1552029 C43.4235701,23.5774993 43.5439232,22.881056 43.5439232,22.065852 L43.5439232,22.0465953 C43.5439232,21.2249724 43.4235701,20.5253197 43.1828603,19.9476161 C42.9421505,19.3699125 42.5939288,18.9286178 42.1381849,18.6237187 C41.6824409,18.3188195 41.1272119,18.1663723 40.4724812,18.1663723 C39.8177504,18.1663723 39.2625214,18.3188195 38.8067775,18.6237187 C38.3510335,18.9286178 38.0028119,19.3699125 37.762102,19.9476161 C37.5213922,20.5253197 37.4010391,21.2249724 37.4010391,22.0465953 L37.4010391,22.065852 C37.4010391,22.881056 37.5213922,23.5774993 37.762102,24.1552029 C38.0028119,24.7329065 38.3510335,25.1758059 38.8067775,25.4839145 C39.2625214,25.7920231 39.8177504,25.9460751 40.4724812,25.9460751 Z M50.5276288,27.4288402 C49.7445195,27.4288402 49.0865892,27.2796023 48.5538181,26.9811222 C48.021047,26.682642 47.6214747,26.2461614 47.3550891,25.6716672 C47.0887036,25.0971731 46.9555128,24.4023345 46.9555128,23.5871305 L46.9555128,16.8665457 L48.6308448,16.8665457 L48.6308448,23.18274 C48.6308448,24.1134847 48.8121768,24.8067186 49.1748463,25.2624626 C49.5375158,25.7182065 50.1328625,25.9460751 50.9609043,25.9460751 C51.4166483,25.9460751 51.81943,25.8786773 52.1692616,25.7438798 C52.5190933,25.6090823 52.8127548,25.4149126 53.0502552,25.1613649 C53.2877556,24.9078172 53.4658782,24.5997133 53.5846284,24.2370438 C53.7033785,23.8743743 53.7627527,23.4651738 53.7627527,23.0094298 L53.7627527,16.8665457 L55.4380848,16.8665457 L55.4380848,27.2459016 L53.7627527,27.2459016 L53.7627527,25.6957381 L53.6086992,25.6957381 C53.4418071,26.061617 53.2139385,26.3745351 52.9250867,26.6345017 C52.6362349,26.8944683 52.2912227,27.0918474 51.8900396,27.2266449 C51.4888566,27.3614425 51.0347242,27.4288402 50.5276288,27.4288402 Z M57.752043,27.2459016 L57.752043,16.8665457 L59.427375,16.8665457 L59.427375,18.4263376 L59.5814285,18.4263376 C59.8446046,17.8743097 60.2233157,17.4458526 60.7175733,17.1409535 C61.2118308,16.8360544 61.8408764,16.6836071 62.6047289,16.6836071 C63.7729739,16.6836071 64.6700058,17.0157817 65.2958513,17.6801408 C65.9216969,18.3445 66.234615,19.2928825 66.234615,20.5253168 L66.234615,27.2459016 L64.5592829,27.2459016 L64.5592829,20.9297073 C64.5592829,19.9925437 64.3619038,19.2977051 63.9671397,18.8451706 C63.5723756,18.3926361 62.9609818,18.1663723 62.13294,18.1663723 C61.5809121,18.1663723 61.1027091,18.2851207 60.6983166,18.522621 C60.2939241,18.7601214 59.981006,19.0971101 59.7595529,19.5335973 C59.5380999,19.9700844 59.427375,20.4932193 59.427375,21.1030175 L59.427375,27.2459016 L57.752043,27.2459016 Z M72.1399459,27.3229284 C71.0744037,27.3229284 70.3025391,27.1078975 69.8243289,26.6778293 C69.3461187,26.2477611 69.1070172,25.5384801 69.1070172,24.549965 L69.1070172,18.2530274 L67.4701985,18.2530274 L67.4701985,16.8665457 L69.1070172,16.8665457 L69.1070172,14.1802374 L70.8401193,14.1802374 L70.8401193,16.8665457 L73.1124087,16.8665457 L73.1124087,18.2530274 L70.8401193,18.2530274 L70.8401193,24.1263178 C70.8401193,24.7361161 70.9556583,25.1742014 71.1867397,25.4405869 C71.4178212,25.7069725 71.8029511,25.8401633 72.3421411,25.8401633 C72.4897765,25.8401633 72.6165484,25.8369538 72.7224608,25.8305349 C72.8283731,25.824116 72.9583544,25.8144877 73.1124087,25.8016499 L73.1124087,27.2266449 C72.9519355,27.2523207 72.7914647,27.2747866 72.6309915,27.2940434 C72.4705183,27.3133002 72.306838,27.3229284 72.1399459,27.3229284 Z" id="count" fill="#FFFFFF" fill-rule="nonzero"></path>
                </g>
            </g>
        </g>
    </g>
</svg>