<?xml version="1.0" encoding="UTF-8"?>
<svg width="23px" height="15px" viewBox="0 0 23 15" version="1.1" xmlns="http://www.w3.org/2000/svg" xmlns:xlink="http://www.w3.org/1999/xlink">
    <title>Upcount logo</title>
    <g id="invoice" stroke="none" stroke-width="1" fill="none" fill-rule="evenodd">
        <g id="upcount_invoices" transform="translate(-20.000000, -24.000000)">
            <g id="left_sidebar">
                <g id="logo" transform="translate(20.000000, 24.000000)">
                    <g id="Group" transform="translate(0.377322, 0.109837)">
                        <path d="M-2.82440737e-13,10.2680028 C-2.82440737e-13,9.8184215 0.371461287,9.45396381 0.812826689,9.45396381 L20.5885684,9.45396381 C21.0374801,9.45396381 21.4013951,9.82295547 21.4013951,10.2680028 L21.4013951,12.9677936 C21.4013951,13.417375 21.0299338,13.7818327 20.5885684,13.7818327 L0.812826689,13.7818327 C0.363914904,13.7818327 -2.82440737e-13,13.412841 -2.82440737e-13,12.9677936 L-2.82440737e-13,10.2680028 Z" id="Rectangle-5" fill="#46DC8A"></path>
                        <path d="M5.52131507,10.7452331 C4.73820576,10.7452331 4.08027543,10.5959952 3.54750434,10.297515 C3.01473325,9.99903484 2.61516092,9.56255423 2.34877538,8.9880601 C2.08238983,8.41356597 1.94919906,7.71872735 1.94919906,6.9035234 L1.94919906,0.182938556 L3.6245311,0.182938556 L3.6245311,6.49913291 C3.6245311,7.42987758 3.80586312,8.12311149 4.16853259,8.57885544 C4.53120207,9.03459938 5.12654878,9.26246793 5.9545906,9.26246793 C6.41033454,9.26246793 6.81311628,9.19507019 7.1629479,9.06027269 C7.51277952,8.92547518 7.80644111,8.7313055 8.04394147,8.47775781 C8.28144184,8.22421013 8.45956444,7.91610617 8.57831462,7.55343669 C8.69706481,7.19076721 8.75643901,6.78156664 8.75643901,6.3258227 L8.75643901,0.182938556 L10.431771,0.182938556 L10.431771,10.5622945 L8.75643901,10.5622945 L8.75643901,9.01213096 L8.60238549,9.01213096 C8.43549334,9.3780099 8.20762478,9.69092799 7.91877299,9.95089461 C7.62992119,10.2108612 7.28490895,10.4082403 6.8837259,10.5430378 C6.48254285,10.6778353 6.02841045,10.7452331 5.52131507,10.7452331 Z M12.7457293,14.0284987 L12.7457293,0.182938556 L14.4210613,0.182938556 L14.4210613,1.8390139 L14.5751148,1.8390139 C14.7869395,1.45387818 15.053321,1.12491301 15.3742674,0.852108537 C15.6952139,0.579304063 16.0610873,0.369087298 16.4718988,0.221451936 C16.8827102,0.0738165738 17.3288191,1.03028697e-13 17.8102387,1.03028697e-13 C18.689632,1.03028697e-13 19.4550778,0.22305443 20.106599,0.669169981 C20.7581203,1.11528553 21.2636034,1.73951699 21.6230634,2.54188309 C21.9825234,3.34424919 22.1622507,4.28460815 22.1622507,5.36298819 L22.1622507,5.38224488 C22.1622507,6.46704385 21.9825234,7.41061223 21.6230634,8.21297832 C21.2636034,9.01534442 20.7581203,9.63797118 20.106599,10.0808773 C19.4550778,10.5237833 18.689632,10.7452331 17.8102387,10.7452331 C17.335238,10.7452331 16.8875244,10.6698118 16.4670846,10.518967 C16.0466448,10.3681221 15.6743525,10.1579054 15.3501966,9.88831036 C15.0260407,9.61871535 14.7676827,9.29777373 14.5751148,8.92547586 L14.4210613,8.92547586 L14.4210613,14.0284987 L12.7457293,14.0284987 Z M17.4251049,9.26246793 C18.0605789,9.26246793 18.6029702,9.10681125 19.0522953,8.7954932 C19.5016203,8.48417515 19.8466325,8.03806629 20.0873423,7.45715324 C20.3280522,6.87624018 20.4484053,6.18461098 20.4484053,5.38224488 L20.4484053,5.36298819 C20.4484053,4.55420316 20.3280522,3.86096925 20.0873423,3.28326566 C19.8466325,2.70556207 19.5016203,2.26105792 19.0522953,1.94973987 C18.6029702,1.63842183 18.0605789,1.48276514 17.4251049,1.48276514 C16.7960499,1.48276514 16.2536586,1.64002653 15.7979146,1.95455404 C15.3421707,2.26908156 14.9923443,2.71519041 14.748425,3.29289401 C14.5045057,3.8705976 14.3825479,4.56062209 14.3825479,5.36298819 L14.3825479,5.38224488 C14.3825479,6.17819205 14.5045057,6.86661184 14.748425,7.44752489 C14.9923443,8.02843795 15.3421707,8.47615152 15.7979146,8.79067903 C16.2536586,9.10520654 16.7960499,9.26246793 17.4251049,9.26246793 Z" id="up" fill="#FFFFFF" fill-rule="nonzero"></path>
                    </g>
                </g>
            </g>
        </g>
    </g>
</svg>