<?xml version="1.0" encoding="UTF-8"?>
<svg width="19px" height="16px" viewBox="0 0 19 16" version="1.1" xmlns="http://www.w3.org/2000/svg" xmlns:xlink="http://www.w3.org/1999/xlink">
    <!-- Generator: Sketch 56.3 (81716) - https://sketch.com -->
    <title>Group</title>
    <desc>Created with Sketch.</desc>
    <g id="Invoice" stroke="none" stroke-width="1" fill="none" fill-rule="evenodd">
        <g id="company_3_select" transform="translate(-20.000000, -18.000000)">
            <g id="left_sidebar">
                <g id="logo" transform="translate(20.000000, 18.000000)">
                    <g id="Group" transform="translate(0.306889, 0.692317)">
                        <path d="M4.36983782e-13,12.2226472 C4.36983782e-13,11.7717585 0.363558822,11.4062409 0.816203385,11.4062409 L16.5902646,11.4062409 C17.0410413,11.4062409 17.406468,11.7696848 17.406468,12.2226472 L17.406468,14.1098347 C17.406468,14.5607234 17.0429092,14.9262409 16.5902646,14.9262409 L0.816203385,14.9262409 C0.365426703,14.9262409 4.36983782e-13,14.5627971 4.36983782e-13,14.1098347 L4.36983782e-13,12.2226472 Z" id="Rectangle-5" fill="#46DC8A"></path>
                        <path d="M5.88632003,0.176417984 L7.95522184,0.176417984 L7.95522184,8.30768324 L6.175004,8.30768324 L6.01462402,7.24917534 C5.58159806,8.06711326 4.87592612,8.48410122 3.86553222,8.48410122 C2.14946637,8.48410122 1.25133845,7.32936533 1.25133845,5.4529195 L1.25133845,0.176417984 L3.33627826,0.176417984 L3.33627826,4.98781754 C3.33627826,5.96613545 3.72119023,6.46331341 4.49101416,6.46331341 C5.30895208,6.46331341 5.88632003,5.80575547 5.88632003,4.53875358 L5.88632003,0.176417984 Z M14.3972952,-3.55271368e-14 C15.4878791,-3.55271368e-14 16.3860071,0.400949963 17.107717,1.21888789 C17.8294269,2.03682581 18.1822629,3.03118172 18.1822629,4.23403161 C18.1822629,5.4368815 17.8133889,6.44727541 17.091679,7.26521334 C16.3699691,8.08315126 15.4718411,8.48410122 14.3972952,8.48410122 C13.2746353,8.48410122 12.4566974,8.13126526 11.9595195,7.40955532 L11.9595195,11.7558529 L9.87457965,11.7558529 L9.87457965,0.176417984 L11.6708355,0.176417984 L11.8151775,1.26700188 C12.3925454,0.416987962 13.2585973,-3.55271368e-14 14.3972952,-3.55271368e-14 Z M13.9642693,1.95663582 C13.4029393,1.95663582 12.9217994,2.1651298 12.5208494,2.56607977 C12.1198994,2.96702973 11.9114055,3.51232168 11.9114055,4.20195562 L11.9114055,4.29818361 C11.9274435,4.97177955 12.1359374,5.5170715 12.5368874,5.91802146 C12.9378374,6.31897142 13.4189773,6.5274654 13.9642693,6.5274654 C15.1190052,6.5274654 16.0171331,5.59726149 16.0171331,4.23403161 C16.0171331,2.87080174 15.1350432,1.95663582 13.9642693,1.95663582 Z" id="up" fill="#FFFFFF" fill-rule="nonzero"></path>
                    </g>
                </g>
            </g>
        </g>
    </g>
</svg>